<svg xmlns="http://www.w3.org/2000/svg" version="1.2" viewBox="0 0 400 398"><path fill="#e4e4e4" fill-rule="evenodd" d="M311.9 47c2.8 1.8 4.3 3.2 6.1 6 .8 7 .8 7-2.2 10.9-4.3 3.2-7.4 3.2-12.6 3.1-16.9-.4-33.5.4-50.4 1.9l-3 .2c-9.8.9-19.5 1.8-29.2 3.5-2.6.4-5 .5-7.6.4q1 1.1 1.9 2.3c3.4 4.4 3.1 8 2.7 13.3 0 1 0 1-.1 2q-.4 5.8-1 11.7c-.2 1.3-.2 1.3-.3 2.7l-.2 2q10.1-1.3 20.1-2.7l3-.4c11.1-1.5 22-3.1 32.8-5.8 17.9-4.3 29-.5 44.5 9 8.1 5.5 8.1 5.5 9.3 11.3-.1 4.4-1.9 6.2-4.7 9.4-7.5 9-9.5 20.9-12.4 32l-5.6 20.6q-1 3.9-2.1 7.9c-6 22.5-6 22.5-14.9 28.7-3.3 1.7-6.4 1.9-10 1-2.4-1.9-4.3-3.9-6.3-6.2-2.2-2.3-3.1-2.8-6.4-3-9.5 0-18.7.9-28.1 2.1l-4.4.6-8.2 1q-6.3.8-12.6 1.5l-.2 2.2c-1 8.4-2.9 16.4-5.2 24.6-.4 1.6-.4 1.6-.9 3.2-1.6 5.7-3.4 10.9-6.1 16.2-.9 2-.9 2 .4 4.8 1.7 1.2 1.7 1.2 3.8 2.1l2.4 1.2q1.3.6 2.7 1.3 2.8 1.3 5.5 2.7 1.4.7 2.9 1.4c3.9 1.9 7.9 4 11.8 6q2.3 1.3 4.7 2.5 1.2.7 2.5 1.4 13.1 6.9 26.2 13.6 3.4 1.8 6.8 3.5c24.7 12.8 50.9 20.9 77.6 28.7 5.7 1.7 10.8 3.8 16.1 6.6v2l-5 1.4-2.8.8c-7.1 1.7-14.4 2-21.7 2.3-1.4.1-1.4.1-2.9.2q-3.1.1-6.3.2l-9.4.4q-3 .2-6 .3c-1.4.1-1.4.1-2.8.1-19.6.8-19.6.8-24.5-1.9q-1.5-.8-3-1.7-1.8-1-3.6-2.1-1.1-.6-2.2-1.3c-18.7-11.2-36.8-23.5-54.7-36-7.1-4.9-14.2-9.9-21.3-14.7q-1.2-.8-2.3-1.5c-3.9-2.8-3.9-2.8-8.5-3.5-1.6 1.9-3 3.7-4.4 5.7-13.3 17.9-30.2 30.3-50.6 39.3q-1 .4-2 .9c-10.2 4.4-20.8 7.7-31.4 10.9l-2 .6c-19.7 6-19.7 6-29.8 5.7H61c-1-.1-1-.1-2-.1l-1-4c5.1-2.5 10.3-4.8 15.6-6.7 23.9-8.6 47.2-20.5 66.4-37.3q1.2-1 2.5-2.1c5.1-4.3 9.6-9.1 13.9-14.2.8-.8.8-.8 1.6-1.7 2.7-3.2 5-6.4 7-10-19.3-16.4-43.3-27.7-67.9-33.3C94 234 94 234 92 233c-.5-5.4-.5-5.4 1.9-8.3 4.4-3.5 8.6-3.1 14.1-2.7 3.7.8 7.4 1.9 11 3q-.4-1.2-.9-2.4c-3.1-9.2-5.2-18.4-7-27.9l-.8-4-3-16.2q-.7-4-1.5-8.1-.7-3.8-1.4-7.5c-1.9-9.6-5.3-17.9-13-24.3q-1-1-2.2-1.9c-2.2-1.8-2.2-1.8-4.9-3.2-2.3-1.5-2.3-1.5-2.9-4.4.6-3.1.6-3.1 2.2-6 5.6-3.5 11-2.8 17.4-2.1 3.8.9 7.4 1.9 11.1 3.1 9.9 2.3 19.6.4 29.4-1.3q2.1-.3 4.1-.7 5.4-.8 10.7-1.7 8.6-1.5 17.2-2.9l6-1 3.6-.6q1.6-.2 3.3-.5c2.6-.4 2.6-.4 5.6-.4-.9-16-.9-16-8.4-29.7-2.1-1.7-3.2-2.3-5.9-2.4-2.9.2-5.7.7-8.5 1.3q-1.6.2-3.2.5-5 .9-10.1 1.8-3.3.6-6.6 1.1c-9.7 1.7-19.4 3.5-29 5.9-10.2 2.4-19.3-2.8-28.2-7.4q-.9-.5-1.9-1c-4.1-2.2-7.1-4.7-10.2-8.1l-1-1c-.4-8.4-.4-8.4 2-12 6.2-.5 10.5.7 16.2 3 12.8 4.7 26.4 3.3 39.7 1.7q1.8-.1 3.6-.4 5.8-.6 11.6-1.3 2-.2 4.1-.5c25.2-2.9 50.2-6.5 75.3-10.6q7.5-1.2 15-2.3c10.7-1.7 21.2-3.3 31.6-6.5 12-3.6 22.9-2 33.8 3.9zm-46.2 71q-1.4.1-2.9.3-3 .3-6 .7l-9 1c-10.7 1.1-21.2 2.7-31.8 5v26c7.7-.6 15.3-1.4 23-2.4q3.1-.4 6.1-.8 4.8-.6 9.5-1.2c22.7-3 22.7-3 33.4-3.6q1.1-4.6 2.1-9.2l.6-2.6c1.4-6.1 1.4-6.1.3-12.2-6.6-4.5-17.8-1.9-25.3-1zM180 130.1q-1 .2-2.1.4-3.3.5-6.5 1.1c-1.1.2-1.1.2-2.3.4-14.8 2.7-29.4 5.7-44.1 9q.5 2.8.9 5.6l.6 3.2c.6 7.6.6 7.6 3.5 14.2 7.2.6 14.2-.5 21.3-1.7 1.6-.3 1.6-.3 3.2-.5q4.9-.9 9.9-1.7 3.3-.6 6.7-1.2 6.1-1 12.2-2.1 1.2-.2 2.5-.4c2.1-.4 4.1-.9 6.2-1.4.3-8.6.7-17.2 1-26-4.7 0-8.5.3-13 1.1zm74.8 33.2-2.2.2c-19.1 1.4-19.1 1.4-37.6 5.5q-.5 5.1-1 10.1-.1 1.4-.3 2.9c-.4 4.7-.8 9.3-.7 14q5.7-.7 11.4-1.3l3.6-.4q10.5-1.2 21.1-2.5c9.3-1.2 18.6-2.3 27.9-2.8 3.1-8.5 5-17.2 7-26-9.8-2-19.4-.6-29.2.3zm-80.2 11.4q-1.5.2-3.1.5-3.1.6-6.3 1.1-4.8.9-9.6 1.7-3.1.5-6.2 1.1-1.4.2-2.9.5c-4.6.8-9 1.7-13.5 3.4.5 7.9 2.1 15.3 4 23 9 .3 17.6-.5 26.6-1.8 1.8-.3 1.8-.3 3.7-.5 12.1-1 12.1-1 22.7-5.7 1-8.3 1.1-16.6 1-25-5.6-.3-10.9.7-16.4 1.7zm-6.4 44.7-5.2.8q-3.8.6-7.5 1.2-1.2.2-2.4.3c-4.3.8-7.4 1.7-11.1 4.3l-2.2 1.4q-1.1.6-2.1 1.3-1.1.6-2.1 1.3l-1.6 1c3.7 3.1 7.9 5.1 12.2 7.2q1.1.6 2.3 1.2 2.5 1.3 5 2.5l7.6 3.8q2.5 1.3 4.9 2.5 1.1.5 2.3 1.1c4.1 2.1 4.1 2.1 8.7 2.7 7-17.1 7-17.1 10-35-6.3 0-12.6 1.4-18.8 2.4z"/></svg>